<?xml version="1.0" encoding="UTF-8" standalone="no"?>
<!DOCTYPE svg PUBLIC "-//W3C//DTD SVG 1.1//EN"
 "http://www.w3.org/Graphics/SVG/1.1/DTD/svg11.dtd">
<!-- Generated by graphviz version 2.43.0 (0)
 -->
<!-- Title: set_config_payload.SetConfigPayload Pages: 1 -->
<svg width="168pt" height="104pt"
 viewBox="0.00 0.00 168.00 104.00" xmlns="http://www.w3.org/2000/svg" xmlns:xlink="http://www.w3.org/1999/xlink">
<g id="graph0" class="graph" transform="scale(1 1) rotate(0) translate(4 100)">
<title>set_config_payload.SetConfigPayload</title>
<!-- Node1 -->
<g id="Node000001" class="node">
<title>Node1</title>
<g id="a_Node000001"><a xlink:title="Defines the model class of the payload for the add_or_update_config (URL /add&#45;config) endpoint of thi...">
<polygon fill="#999999" stroke="#666666" points="160,-30 0,-30 0,0 160,0 160,-30"/>
<text text-anchor="start" x="8" y="-18" font-family="Helvetica,sans-Serif" font-size="10.00">set_config_payload.SetConfig</text>
<text text-anchor="middle" x="80" y="-7" font-family="Helvetica,sans-Serif" font-size="10.00">Payload</text>
</a>
</g>
</g>
<!-- Node2 -->
<g id="Node000002" class="node">
<title>Node2</title>
<g id="a_Node000002"><a xlink:title=" ">
<polygon fill="white" stroke="#666666" points="72.5,-96 1.5,-96 1.5,-77 72.5,-77 72.5,-96"/>
<text text-anchor="middle" x="37" y="-84" font-family="Helvetica,sans-Serif" font-size="10.00">BaseModel</text>
</a>
</g>
</g>
<!-- Node2&#45;&gt;Node1 -->
<g id="edge1_Node000001_Node000002" class="edge">
<title>Node2&#45;&gt;Node1</title>
<g id="a_edge1_Node000001_Node000002"><a xlink:title=" ">
<path fill="none" stroke="#63b8ff" d="M47.74,-68.14C55,-56.41 64.46,-41.12 71.25,-30.14"/>
<polygon fill="#63b8ff" stroke="#63b8ff" points="44.56,-66.63 42.27,-76.98 50.51,-70.32 44.56,-66.63"/>
</a>
</g>
</g>
<!-- Node3 -->
<g id="Node000003" class="node">
<title>Node3</title>
<g id="a_Node000003"><a xlink:title=" ">
<polygon fill="white" stroke="#666666" points="155.5,-96 90.5,-96 90.5,-77 155.5,-77 155.5,-96"/>
<text text-anchor="middle" x="123" y="-84" font-family="Helvetica,sans-Serif" font-size="10.00">Submodel</text>
</a>
</g>
</g>
<!-- Node3&#45;&gt;Node1 -->
<g id="edge2_Node000001_Node000003" class="edge">
<title>Node3&#45;&gt;Node1</title>
<g id="a_edge2_Node000001_Node000003"><a xlink:title=" ">
<path fill="none" stroke="#9a32cd" stroke-dasharray="5,2" d="M112.26,-68.14C105,-56.41 95.54,-41.12 88.75,-30.14"/>
<polygon fill="#9a32cd" stroke="#9a32cd" points="109.49,-70.32 117.73,-76.98 115.44,-66.63 109.49,-70.32"/>
</a>
</g>
<text text-anchor="middle" x="127" y="-51" font-family="Helvetica,sans-Serif" font-size="10.00" fill="grey"> _aid_sm</text>
</g>
</g>
</svg>
