<?xml version="1.0" encoding="UTF-8" standalone="no"?>
<!DOCTYPE svg PUBLIC "-//W3C//DTD SVG 1.1//EN"
 "http://www.w3.org/Graphics/SVG/1.1/DTD/svg11.dtd">
<!-- Generated by graphviz version 2.43.0 (0)
 -->
<!-- Title: python_connector.mqtt.mqtt_client.MqttClient.__exit__ Pages: 1 -->
<svg width="548pt" height="56pt"
 viewBox="0.00 0.00 548.00 56.00" xmlns="http://www.w3.org/2000/svg" xmlns:xlink="http://www.w3.org/1999/xlink">
<g id="graph0" class="graph" transform="scale(1 1) rotate(0) translate(4 52)">
<title>python_connector.mqtt.mqtt_client.MqttClient.__exit__</title>
<!-- Node1 -->
<g id="Node000001" class="node">
<title>Node1</title>
<g id="a_Node000001"><a xlink:title="Context manager exit point &#45; ensures proper cleanup.">
<polygon fill="#999999" stroke="#666666" points="155,-30 0,-30 0,0 155,0 155,-30"/>
<text text-anchor="start" x="8" y="-18" font-family="Helvetica,sans-Serif" font-size="10.00">python_connector.mqtt.mqtt</text>
<text text-anchor="middle" x="77.5" y="-7" font-family="Helvetica,sans-Serif" font-size="10.00">_client.MqttClient.__exit__</text>
</a>
</g>
</g>
<!-- Node2 -->
<g id="Node000002" class="node">
<title>Node2</title>
<g id="a_Node000002"><a xlink:href="classpython__connector_1_1mqtt_1_1mqtt__client_1_1MqttClient.html#a31597be5e16108b77ff3c30847a339f9" target="_top" xlink:title="Clean up resources and disconnect from the MQTT broker.">
<polygon fill="white" stroke="#666666" points="346,-30 191,-30 191,0 346,0 346,-30"/>
<text text-anchor="start" x="199" y="-18" font-family="Helvetica,sans-Serif" font-size="10.00">python_connector.mqtt.mqtt</text>
<text text-anchor="middle" x="268.5" y="-7" font-family="Helvetica,sans-Serif" font-size="10.00">_client.MqttClient.dispose</text>
</a>
</g>
</g>
<!-- Node1&#45;&gt;Node2 -->
<g id="edge1_Node000001_Node000002" class="edge">
<title>Node1&#45;&gt;Node2</title>
<g id="a_edge1_Node000001_Node000002"><a xlink:title=" ">
<path fill="none" stroke="#63b8ff" d="M155.1,-15C163.56,-15 172.22,-15 180.79,-15"/>
<polygon fill="#63b8ff" stroke="#63b8ff" points="180.79,-18.5 190.79,-15 180.79,-11.5 180.79,-18.5"/>
</a>
</g>
</g>
<!-- Node3 -->
<g id="Node000003" class="node">
<title>Node3</title>
<g id="a_Node000003"><a xlink:href="classpython__connector_1_1mqtt_1_1mqtt__client_1_1MqttClient.html#a6acf954adfe24aba00749aecc4f8b157" target="_top" xlink:title="Disconnect from the MQTT broker gracefully.">
<polygon fill="white" stroke="#666666" points="540,-30 382,-30 382,0 540,0 540,-30"/>
<text text-anchor="start" x="390" y="-18" font-family="Helvetica,sans-Serif" font-size="10.00">python_connector.mqtt.mqtt</text>
<text text-anchor="middle" x="461" y="-7" font-family="Helvetica,sans-Serif" font-size="10.00">_client.MqttClient.disconnect</text>
</a>
</g>
</g>
<!-- Node2&#45;&gt;Node3 -->
<g id="edge2_Node000002_Node000003" class="edge">
<title>Node2&#45;&gt;Node3</title>
<g id="a_edge2_Node000002_Node000003"><a xlink:title=" ">
<path fill="none" stroke="#63b8ff" d="M346.16,-15C354.63,-15 363.31,-15 371.9,-15"/>
<polygon fill="#63b8ff" stroke="#63b8ff" points="371.94,-18.5 381.94,-15 371.94,-11.5 371.94,-18.5"/>
</a>
</g>
</g>
<!-- Node3&#45;&gt;Node3 -->
<g id="edge3_Node000003_Node000003" class="edge">
<title>Node3&#45;&gt;Node3</title>
<g id="a_edge3_Node000003_Node000003"><a xlink:title=" ">
<path fill="none" stroke="#63b8ff" d="M427.25,-30.28C419.75,-39.41 431,-48 461,-48 478.81,-48 490.01,-44.97 494.61,-40.6"/>
<polygon fill="#63b8ff" stroke="#63b8ff" points="498.11,-40.32 494.75,-30.28 491.11,-40.23 498.11,-40.32"/>
</a>
</g>
</g>
</g>
</svg>
