<?xml version="1.0" encoding="UTF-8" standalone="no"?>
<!DOCTYPE svg PUBLIC "-//W3C//DTD SVG 1.1//EN"
 "http://www.w3.org/Graphics/SVG/1.1/DTD/svg11.dtd">
<!-- Generated by graphviz version 2.43.0 (0)
 -->
<!-- Title: get_value_payload.GetValuePayload.__init__ Pages: 1 -->
<svg width="567pt" height="86pt"
 viewBox="0.00 0.00 567.00 86.00" xmlns="http://www.w3.org/2000/svg" xmlns:xlink="http://www.w3.org/1999/xlink">
<g id="graph0" class="graph" transform="scale(1 1) rotate(0) translate(4 82)">
<title>get_value_payload.GetValuePayload.__init__</title>
<!-- Node1 -->
<g id="Node000001" class="node">
<title>Node1</title>
<g id="a_Node000001"><a xlink:title=" ">
<polygon fill="#999999" stroke="#666666" points="156,-54 0,-54 0,-24 156,-24 156,-54"/>
<text text-anchor="start" x="8" y="-42" font-family="Helvetica,sans-Serif" font-size="10.00">get_value_payload.GetValue</text>
<text text-anchor="middle" x="78" y="-31" font-family="Helvetica,sans-Serif" font-size="10.00">Payload.__init__</text>
</a>
</g>
</g>
<!-- Node1&#45;&gt;Node1 -->
<g id="edge1_Node000001_Node000001" class="edge">
<title>Node1&#45;&gt;Node1</title>
<g id="a_edge1_Node000001_Node000001"><a xlink:title=" ">
<path fill="none" stroke="#63b8ff" d="M42.84,-54.28C35.03,-63.41 46.75,-72 78,-72 96.55,-72 108.22,-68.97 113.01,-64.6"/>
<polygon fill="#63b8ff" stroke="#63b8ff" points="116.51,-64.32 113.16,-54.28 109.51,-64.22 116.51,-64.32"/>
</a>
</g>
</g>
<!-- Node2 -->
<g id="Node000002" class="node">
<title>Node2</title>
<g id="a_Node000002"><a xlink:href="classget__value__payload_1_1GetValuePayload.html#ae40d0534122b343e9b33e21927bdbf0a" target="_top" xlink:title=" ">
<polygon fill="white" stroke="#666666" points="367,-78 192,-78 192,-48 367,-48 367,-78"/>
<text text-anchor="start" x="200" y="-66" font-family="Helvetica,sans-Serif" font-size="10.00">get_value_payload.GetValue</text>
<text text-anchor="middle" x="279.5" y="-55" font-family="Helvetica,sans-Serif" font-size="10.00">Payload._build_model_reference</text>
</a>
</g>
</g>
<!-- Node1&#45;&gt;Node2 -->
<g id="edge2_Node000001_Node000002" class="edge">
<title>Node1&#45;&gt;Node2</title>
<g id="a_edge2_Node000001_Node000002"><a xlink:title=" ">
<path fill="none" stroke="#63b8ff" d="M156.13,-48.28C164.56,-49.29 173.22,-50.34 181.85,-51.37"/>
<polygon fill="#63b8ff" stroke="#63b8ff" points="181.61,-54.87 191.95,-52.59 182.44,-47.92 181.61,-54.87"/>
</a>
</g>
</g>
<!-- Node5 -->
<g id="Node000005" class="node">
<title>Node5</title>
<g id="a_Node000005"><a xlink:href="classset__value__payload_1_1SetValuePayload.html#ac77e4bc93f6f2ec6233edf9ac2d95d81" target="_top" xlink:title=" ">
<polygon fill="white" stroke="#666666" points="367,-30 192,-30 192,0 367,0 367,-30"/>
<text text-anchor="start" x="200" y="-18" font-family="Helvetica,sans-Serif" font-size="10.00">set_value_payload.SetValue</text>
<text text-anchor="middle" x="279.5" y="-7" font-family="Helvetica,sans-Serif" font-size="10.00">Payload._build_model_reference</text>
</a>
</g>
</g>
<!-- Node1&#45;&gt;Node5 -->
<g id="edge5_Node000001_Node000005" class="edge">
<title>Node1&#45;&gt;Node5</title>
<g id="a_edge5_Node000001_Node000005"><a xlink:title=" ">
<path fill="none" stroke="#63b8ff" d="M156.13,-29.72C164.56,-28.71 173.22,-27.66 181.85,-26.63"/>
<polygon fill="#63b8ff" stroke="#63b8ff" points="182.44,-30.08 191.95,-25.41 181.61,-23.13 182.44,-30.08"/>
</a>
</g>
</g>
<!-- Node3 -->
<g id="Node000003" class="node">
<title>Node3</title>
<g id="a_Node000003"><a xlink:href="classget__value__payload_1_1GetValuePayload.html#a53465c52dd1f29357997617ad88d5207" target="_top" xlink:title=" ">
<polygon fill="white" stroke="#666666" points="559,-78 403,-78 403,-48 559,-48 559,-78"/>
<text text-anchor="start" x="411" y="-66" font-family="Helvetica,sans-Serif" font-size="10.00">get_value_payload.GetValue</text>
<text text-anchor="middle" x="481" y="-55" font-family="Helvetica,sans-Serif" font-size="10.00">Payload._get_key_type</text>
</a>
</g>
</g>
<!-- Node2&#45;&gt;Node3 -->
<g id="edge3_Node000002_Node000003" class="edge">
<title>Node2&#45;&gt;Node3</title>
<g id="a_edge3_Node000002_Node000003"><a xlink:title=" ">
<path fill="none" stroke="#63b8ff" d="M367.13,-63C375.58,-63 384.16,-63 392.61,-63"/>
<polygon fill="#63b8ff" stroke="#63b8ff" points="392.85,-66.5 402.85,-63 392.85,-59.5 392.85,-66.5"/>
</a>
</g>
</g>
<!-- Node4 -->
<g id="Node000004" class="node">
<title>Node4</title>
<g id="a_Node000004"><a xlink:href="classset__value__payload_1_1SetValuePayload.html#aa0699d9679e491e65cf9a10f8dcbff54" target="_top" xlink:title=" ">
<polygon fill="white" stroke="#666666" points="558,-30 404,-30 404,0 558,0 558,-30"/>
<text text-anchor="start" x="412" y="-18" font-family="Helvetica,sans-Serif" font-size="10.00">set_value_payload.SetValue</text>
<text text-anchor="middle" x="481" y="-7" font-family="Helvetica,sans-Serif" font-size="10.00">Payload._get_key_type</text>
</a>
</g>
</g>
<!-- Node2&#45;&gt;Node4 -->
<g id="edge4_Node000002_Node000004" class="edge">
<title>Node2&#45;&gt;Node4</title>
<g id="a_edge4_Node000002_Node000004"><a xlink:title=" ">
<path fill="none" stroke="#63b8ff" d="M343.08,-47.94C363.59,-43.01 386.56,-37.48 407.74,-32.39"/>
<polygon fill="#63b8ff" stroke="#63b8ff" points="408.74,-35.74 417.65,-30 407.11,-28.94 408.74,-35.74"/>
</a>
</g>
</g>
<!-- Node5&#45;&gt;Node3 -->
<g id="edge6_Node000005_Node000003" class="edge">
<title>Node5&#45;&gt;Node3</title>
<g id="a_edge6_Node000005_Node000003"><a xlink:title=" ">
<path fill="none" stroke="#63b8ff" d="M343.08,-30.06C363.59,-34.99 386.56,-40.52 407.74,-45.61"/>
<polygon fill="#63b8ff" stroke="#63b8ff" points="407.11,-49.06 417.65,-48 408.74,-42.26 407.11,-49.06"/>
</a>
</g>
</g>
<!-- Node5&#45;&gt;Node4 -->
<g id="edge7_Node000005_Node000004" class="edge">
<title>Node5&#45;&gt;Node4</title>
<g id="a_edge7_Node000005_Node000004"><a xlink:title=" ">
<path fill="none" stroke="#63b8ff" d="M367.13,-15C375.9,-15 384.81,-15 393.57,-15"/>
<polygon fill="#63b8ff" stroke="#63b8ff" points="393.78,-18.5 403.78,-15 393.78,-11.5 393.78,-18.5"/>
</a>
</g>
</g>
</g>
</svg>
